<?xml version="1.0" encoding="UTF-8" standalone="no"?>
<!DOCTYPE svg PUBLIC "-//W3C//DTD SVG 1.1//EN" "http://www.w3.org/Graphics/SVG/1.1/DTD/svg11.dtd">
<svg width="100%" height="100%" viewBox="0 0 32 32" version="1.1" xmlns="http://www.w3.org/2000/svg" xmlns:xlink="http://www.w3.org/1999/xlink" xml:space="preserve" xmlns:serif="http://www.serif.com/" style="fill-rule:evenodd;clip-rule:evenodd;stroke-linejoin:round;stroke-miterlimit:2;">
    <g transform="matrix(1,0,0,1,-10,-10)">
        <g id="codewars" transform="matrix(0.0498054,0,0,0.0504016,9.50195,9.49598)">
            <path d="M321.7,550.8C325.296,548.368 329.56,547.11 333.9,547.2C341.22,547.371 347.941,551.358 351.6,557.7C356.278,552.94 362.729,550.331 369.4,550.5C375.223,550.625 380.806,552.865 385.1,556.8C388.267,544.996 399.182,536.82 411.4,537.1C414.737,537.183 418.028,537.895 421.1,539.2L421.1,539.8C421.5,524.1 434.1,511.6 449.5,511.1C446.538,504.985 445.392,498.146 446.2,491.4C447.7,479.1 455.3,469 465.6,463.7L465.7,463.8C460.4,458.3 457.2,450.8 457.4,442.5C457.536,436.154 459.711,430.017 463.6,425C451.886,418.394 446.711,404.067 451.5,391.5C438.829,390.204 429.174,379.233 429.5,366.5C429.502,365.227 429.602,363.957 429.8,362.7C428.418,362.983 427.01,363.117 425.6,363.1C416.645,362.836 408.932,356.525 406.9,347.8C403.86,349.841 400.26,350.89 396.6,350.8C388.4,350.5 381.6,344.8 379.8,337.1C378.029,338.082 376.024,338.566 374,338.5C372.331,338.463 370.69,338.053 369.2,337.3L369.2,337.1C367.416,343.187 364.072,348.703 359.5,353.1C361.737,354.147 363.566,355.906 364.7,358.1C366.396,361.444 366.321,365.422 364.5,368.7C372.582,370.53 378.368,377.774 378.368,386.06C378.368,390.708 376.548,395.176 373.3,398.5C377.436,400.311 380.827,403.489 382.9,407.5C387.9,417.2 384,429.1 374.3,434.1C376.474,436.095 378.269,438.467 379.6,441.1C385.8,453.2 381.1,468.1 369,474.1C367.104,475.091 365.087,475.831 363,476.3L363,476.4C364.995,480.269 366.036,484.559 366.036,488.911C366.036,499.134 360.294,508.533 351.2,513.2C346.67,515.529 341.575,516.534 336.5,516.1C337.256,528.491 330.166,540.107 318.8,545.1C320.139,546.764 321.156,548.663 321.8,550.7C321.767,550.702 321.733,550.702 321.7,550.7L321.7,550.8Z" style="fill:white;fill-rule:nonzero;"/>
            <path d="M623.8,10L38.7,10C22.956,10 10,22.956 10,38.7L10,616.2C10,631.944 22.956,644.9 38.7,644.9L623.8,644.9C639.544,644.9 652.5,631.944 652.5,616.2L652.5,38.7C652.5,22.956 639.544,10 623.8,10ZM597.3,398.8C593.5,404.8 587.5,408.8 581.1,410.4C584.831,414.778 586.881,420.345 586.881,426.097C586.881,439.373 575.957,450.297 562.681,450.297C561.651,450.297 560.622,450.231 559.6,450.1C559.543,449.732 559.476,449.365 559.4,449C559.664,450.339 559.797,451.701 559.797,453.066C559.797,464.586 550.318,474.066 538.797,474.066C535.981,474.066 533.193,473.499 530.6,472.4C530.334,475.069 529.443,477.639 528,479.9C525.3,484.2 521,486.9 516.5,487.6C517.401,491.602 517.604,495.729 517.1,499.8C514.819,519.245 496.946,533.372 477.5,531.1L478.5,531.1C479.597,534.385 480.105,537.838 480,541.3C479.567,557.447 465.948,570.389 449.8,570C445.414,569.887 441.108,568.793 437.2,566.8C435.662,580.16 424.222,590.358 410.775,590.358C403.641,590.358 396.799,587.488 391.8,582.4C388.495,592.224 379.228,598.883 368.863,598.883C359.274,598.883 350.551,593.183 346.7,584.4C342.945,587.481 338.236,589.165 333.38,589.165C323,589.165 314.1,581.47 312.6,571.2C310.171,572.374 307.498,572.957 304.8,572.9C296.1,572.7 289,565.9 288.2,557.4L288.3,557.2C284.287,563.533 278.369,568.436 271.4,571.2C253.589,578.328 233.054,569.891 225.4,552.3C223.052,554.832 220.276,556.931 217.2,558.5C202.822,565.809 184.979,560.042 177.6,545.7C175.569,541.801 174.441,537.494 174.3,533.1C171.171,534.345 167.834,534.985 164.466,534.985C149.873,534.985 137.866,522.977 137.866,508.385C137.866,505.781 138.248,503.192 139,500.7C137.603,500.948 136.187,501.073 134.768,501.073C121.492,501.073 110.568,490.149 110.568,476.873C110.568,471.529 112.338,466.333 115.6,462.1C107.677,458.901 102.463,451.172 102.463,442.628C102.463,436.007 105.594,429.761 110.9,425.8C108.72,424.236 106.939,422.18 105.7,419.8C103.058,414.666 103.171,408.533 106,403.5L106.5,403.6C101.667,402.422 97.136,400.241 93.2,397.2C77.934,385.442 74.802,363.337 86.2,347.8C82.864,347.056 79.683,345.737 76.8,343.9C63.18,335.196 59.12,316.835 67.8,303.2C70.179,299.508 73.357,296.398 77.1,294.1C70.528,289.071 66.665,281.252 66.665,272.976C66.665,260.702 75.16,249.945 87.1,247.1C83.421,242.736 81.402,237.209 81.402,231.501C81.402,218.225 92.326,207.301 105.602,207.301C106.638,207.301 107.672,207.367 108.7,207.5L108.8,208.6C108.521,207.226 108.381,205.827 108.381,204.425C108.381,192.904 117.86,183.425 129.381,183.425C132.205,183.425 135.001,183.995 137.6,185.1C137.866,182.431 138.757,179.861 140.2,177.6C142.9,173.4 147.2,170.7 151.8,169.9C150.877,165.936 150.64,161.844 151.1,157.8C153.338,138.691 170.64,124.653 189.8,126.4C188.681,123.153 188.139,119.734 188.2,116.3C188.7,100 202.2,87.1 218.4,87.6C222.779,87.679 227.085,88.738 231,90.7C232.579,77.379 244.001,67.231 257.415,67.231C264.554,67.231 271.4,70.105 276.4,75.2C279.688,65.347 288.969,58.66 299.356,58.66C308.928,58.66 317.639,64.34 321.5,73.1C325.255,70.019 329.964,68.335 334.82,68.335C345.2,68.335 354.1,76.03 355.6,86.3C358.038,85.16 360.71,84.612 363.4,84.7C372.2,84.9 379.2,91.7 380.1,100.1L379.9,100.4C383.891,94.025 389.813,89.084 396.8,86.3C414.8,79 435.2,87.5 442.8,105.3C445.14,102.732 447.916,100.599 451,99C465.401,91.624 483.32,97.402 490.7,111.8C492.697,115.707 493.79,120.014 493.9,124.4C497.072,123.116 500.461,122.456 503.883,122.456C518.475,122.456 530.483,134.463 530.483,149.056C530.483,151.715 530.084,154.359 529.3,156.9C530.668,156.662 532.055,156.543 533.444,156.543C546.72,156.543 557.644,167.467 557.644,180.743C557.644,186.037 555.907,191.187 552.7,195.4C560.623,198.599 565.837,206.328 565.837,214.872C565.837,221.493 562.706,227.739 557.4,231.7C559.544,233.276 561.29,235.331 562.5,237.7C565.178,242.86 565.065,249.041 562.2,254.1C566.884,255.3 571.274,257.443 575.1,260.4C590.273,272.182 593.355,294.206 582,309.7C585.343,310.475 588.524,311.828 591.4,313.7C604.961,322.401 609.014,340.684 600.4,354.3C598.062,358.017 594.917,361.162 591.2,363.5C601.983,371.885 604.644,387.283 597.3,398.8Z" style="fill:white;fill-rule:nonzero;"/>
            <path d="M316.6,99.8C311.922,104.56 305.471,107.169 298.8,107C293.025,106.879 287.483,104.676 283.2,100.8C279.986,112.601 269.027,120.738 256.8,120.4C253.47,120.349 250.179,119.67 247.1,118.4C246.382,133.627 233.935,145.898 218.7,146.4C221.662,152.515 222.808,159.354 222,166.1C220.595,177.993 213.297,188.415 202.6,193.8C207.9,199.3 211,206.8 210.8,215.1C210.642,221.412 208.469,227.511 204.6,232.5C213.2,237.3 218.8,246.5 218.6,257C218.482,260.086 217.84,263.13 216.7,266C229.409,267.298 239.079,278.33 238.7,291.1C238.693,292.339 238.593,293.576 238.4,294.8C239.785,294.551 241.193,294.45 242.6,294.5C251.8,294.7 259.4,301.2 261.4,309.8C264.412,307.779 267.973,306.731 271.6,306.8C279.9,307 286.6,312.8 288.5,320.5C291.635,318.736 295.436,318.587 298.7,320.1C299.87,313.854 302.664,308.024 306.8,303.2C305.462,302.189 304.369,300.89 303.6,299.4C301.908,296.099 301.945,292.168 303.7,288.9C295.619,287.069 289.833,279.826 289.833,271.54C289.833,266.844 291.691,262.333 295,259C290.864,257.189 287.473,254.011 285.4,250C283.975,247.211 283.232,244.124 283.232,240.992C283.232,232.905 288.188,225.595 295.7,222.6C295.157,222.81 294.623,223.043 294.1,223.3C291.89,221.313 290.061,218.941 288.7,216.3C286.909,212.827 285.974,208.976 285.974,205.069C285.974,193.536 294.117,183.488 305.4,181.1L305.4,181C298.579,167.72 303.851,151.182 317.1,144.3C321.649,141.918 326.783,140.878 331.9,141.3C331.181,129.583 337.473,118.493 347.9,113.1C348.426,112.851 348.96,112.618 349.5,112.4C348.196,110.728 347.213,108.829 346.6,106.8C342.992,109.197 338.73,110.42 334.4,110.3C327.06,110.108 320.334,106.08 316.7,99.7L316.6,99.8ZM531.3,316.8C521.816,309.438 516.659,297.769 517.6,285.8C510.2,287.5 502.1,286.4 495.2,281.9C489.838,278.52 485.7,273.506 483.4,267.6C474.636,272.57 463.806,272.3 455.3,266.9C452.654,265.214 450.319,263.082 448.4,260.6C440.8,270.8 426.5,273.6 415.6,266.6C414.546,265.943 413.544,265.207 412.6,264.4C412.137,265.727 411.533,267.001 410.8,268.2C405.941,275.746 396.53,279.089 388,276.3C388.149,279.939 387.171,283.537 385.2,286.6C380.8,293.6 372.3,296.4 364.8,294C364.757,296.018 364.17,297.988 363.1,299.7C362.5,300.6 361.8,301.4 361.1,302C365.074,306.284 367.956,311.464 369.5,317.1C371.059,316.352 372.771,315.976 374.5,316C378.235,316.104 381.685,318.054 383.7,321.2C387.078,317.346 391.961,315.132 397.086,315.132C404.88,315.132 411.809,320.251 414.1,327.7C417.673,324.942 422.088,323.494 426.6,323.6C437.6,323.8 446.1,332.9 445.9,343.8C445.867,344.47 445.8,345.137 445.7,345.8L445.9,343.9C448.692,342.911 451.639,342.437 454.6,342.5C467.853,342.765 478.61,353.74 478.61,366.995C478.61,367.23 478.607,367.465 478.6,367.7C478.542,369.834 478.205,371.952 477.6,374C492.7,374.4 504.6,386.9 504.2,402C504.075,407.094 502.515,412.052 499.7,416.3C510.461,421.24 517.282,432.163 517,444C516.881,447.322 516.205,450.601 515,453.7L515.1,453.5L517.8,454C517.6,449.658 518.754,445.359 521.1,441.7C525.047,435.512 531.963,431.827 539.3,432C537.62,425.528 538.708,418.64 542.3,413C545.447,408.15 550.244,404.598 555.8,403C547.27,394.178 545.899,380.544 552.5,370.2C554.324,367.385 556.665,364.942 559.4,363C546.633,354.542 542.504,337.454 550,324.1C543.23,323.498 536.773,320.964 531.4,316.8L531.3,316.8Z" style="fill:white;fill-rule:nonzero;"/>
            <path d="M532.7,236.4C533.329,235.358 534.066,234.386 534.9,233.5C531.079,231.487 527.97,228.343 526,224.5C522.65,217.973 522.954,210.147 526.8,203.9C520.6,202.1 515.2,197.9 512,191.7C509.341,186.558 508.631,180.624 510,175C498.106,177.871 485.692,172.183 480.1,161.3C478.568,158.306 477.618,155.048 477.3,151.7C463.59,158.378 446.845,153.336 439.1,140.2C435.15,145.715 429.701,149.985 423.4,152.5C412.283,156.95 399.642,155.52 389.8,148.7L389.8,148.4C387.455,156.05 382.114,162.437 375,166.1C369.38,169.034 362.963,170.086 356.7,169.1C356.526,179.139 350.827,188.304 341.9,192.9C339.148,194.328 336.171,195.275 333.1,195.7C338,207.4 333.1,221.1 321.6,227C320.506,227.585 319.369,228.086 318.2,228.5C319.088,229.582 319.859,230.755 320.5,232C324.7,240.2 322.6,250 316,255.8C319.222,257.501 321.842,260.155 323.5,263.4C327.3,270.7 325.5,279.4 319.5,284.7C321.242,285.765 322.66,287.287 323.6,289.1C324.1,290 324.4,290.9 324.6,291.8C330.471,290.157 336.662,290.02 342.6,291.4C342.865,290.053 343.373,288.765 344.1,287.6C346.096,284.482 349.501,282.537 353.2,282.4C352.636,280.642 352.348,278.806 352.348,276.96C352.348,267.195 360.384,259.16 370.148,259.16C371.616,259.16 373.077,259.341 374.5,259.7C374.005,255.217 375.064,250.696 377.5,246.9C383.3,237.7 395.5,235 404.7,240.9C405.325,237.982 406.477,235.203 408.1,232.7C412.584,225.601 420.417,221.284 428.813,221.284C433.526,221.284 438.14,222.644 442.1,225.2C443.87,226.354 445.484,227.732 446.9,229.3C451.903,221.421 460.613,216.634 469.946,216.634C475.137,216.634 480.221,218.114 484.6,220.9C488.935,223.644 492.404,227.563 494.6,232.2C504.1,225.8 516.9,225.2 527.1,231.8C529.147,233.099 531.028,234.644 532.7,236.4ZM344.7,368.4C343.641,366.443 343.188,364.215 343.4,362C340.458,362.74 337.434,363.11 334.4,363.1C331.4,363.1 328.5,362.8 325.8,362.1C326.265,364.84 325.695,367.657 324.2,370C322.185,373.146 318.735,375.096 315,375.2C315.536,376.917 315.809,378.706 315.809,380.505C315.809,390.27 307.774,398.305 298.009,398.305C296.591,398.305 295.178,398.135 293.8,397.8C294.295,402.283 293.236,406.804 290.8,410.6C284.945,419.717 272.638,422.422 263.5,416.6C262.875,419.518 261.723,422.297 260.1,424.8C255.61,431.873 247.793,436.17 239.415,436.17C234.731,436.17 230.144,434.827 226.2,432.3C224.395,431.152 222.748,429.774 221.3,428.2L221.3,428.3C213.235,440.916 196.218,444.662 183.6,436.6C179.279,433.883 175.812,430 173.6,425.4C164.1,431.8 151.4,432.4 141.1,425.8C139.053,424.5 137.173,422.955 135.5,421.2C134.864,422.206 134.127,423.144 133.3,424C137.158,425.996 140.304,429.142 142.3,433C145.62,439.544 145.278,447.371 141.4,453.6C147.6,455.4 153.1,459.6 156.2,465.8C158.859,470.942 159.569,476.876 158.2,482.5C170.149,479.595 182.631,485.336 188.2,496.3C189.687,499.269 190.603,502.492 190.9,505.8C204.634,499.061 221.45,504.11 229.2,517.3C233.15,511.785 238.599,507.515 244.9,505C256.4,500.4 268.9,502.2 278.5,508.8C280.882,501.274 286.178,495.006 293.2,491.4C298.832,488.5 305.248,487.484 311.5,488.5C311.6,478.8 317,469.4 326.3,464.6C329.084,463.163 332.095,462.216 335.2,461.8C330.2,450.1 335.2,436.4 346.6,430.5C347.729,429.945 348.899,429.476 350.1,429.1C349.17,427.992 348.365,426.784 347.7,425.5C343.5,417.3 345.7,407.6 352.2,401.8C348.978,400.099 346.358,397.445 344.7,394.2C341,386.8 342.8,378.1 348.7,372.8C346.995,371.721 345.612,370.2 344.7,368.4Z" style="fill:white;fill-rule:nonzero;"/>
            <path d="M300.4,339.5C298.438,340.864 296.089,341.565 293.7,341.5C289.984,341.418 286.538,339.508 284.5,336.4C281.124,340.204 276.274,342.384 271.188,342.384C263.426,342.384 256.518,337.307 254.2,329.9C250.587,332.644 246.134,334.058 241.6,333.9C230.7,333.7 222.1,324.6 222.4,313.7C219.571,314.667 216.588,315.107 213.6,315C200.381,314.689 189.677,303.729 189.677,290.507C189.677,288.134 190.021,285.774 190.7,283.5L190.6,283.5C175.6,283.2 163.6,270.7 164,255.6C164.125,250.506 165.685,245.548 168.5,241.3C157.817,236.3 151.082,225.391 151.4,213.6C151.466,210.323 152.074,207.079 153.2,204C152.288,203.905 151.385,203.738 150.5,203.5C150.7,207.842 149.546,212.141 147.2,215.8C143.253,221.988 136.337,225.673 129,225.5C130.6,231.8 129.7,238.6 126,244.5C122.895,249.368 118.135,252.956 112.6,254.6C120.9,263.3 122.6,276.8 115.8,287.4C114.006,290.206 111.699,292.649 109,294.6C121.711,303.051 125.834,320.068 118.4,333.4C125.146,334.05 131.567,336.618 136.9,340.8C146.353,348.142 151.507,359.765 150.6,371.7C158.1,370 166.1,371.2 173.1,375.7C178.409,379.07 182.508,384.045 184.8,389.9C193.582,384.96 204.413,385.268 212.9,390.7C215.538,392.356 217.872,394.454 219.8,396.9C227.4,386.7 241.8,383.9 252.6,390.9C253.658,391.589 254.66,392.358 255.6,393.2C256.095,391.869 256.732,390.595 257.5,389.4C262.5,381.6 271.9,378.5 280.3,381.2C280.142,377.605 281.084,374.046 283,371C287.5,364 296,361.3 303.4,363.7C303.482,359.378 306.059,355.474 310,353.7C305.742,349.855 302.452,345.058 300.4,339.7L300.4,339.5Z" style="fill:white;fill-rule:nonzero;"/>
        </g>
    </g>
</svg>
