<?xml version="1.0" encoding="UTF-8" standalone="no"?>
<!DOCTYPE svg PUBLIC "-//W3C//DTD SVG 1.1//EN" "http://www.w3.org/Graphics/SVG/1.1/DTD/svg11.dtd">
<svg width="100%" height="100%" viewBox="0 0 37 26" version="1.1" xmlns="http://www.w3.org/2000/svg" xmlns:xlink="http://www.w3.org/1999/xlink" xml:space="preserve" xmlns:serif="http://www.serif.com/" style="fill-rule:evenodd;clip-rule:evenodd;">
    <g transform="matrix(1,0,0,1,-157,1)">
        <g id="freeCodeCamp" transform="matrix(0.926118,0,0,0.926118,-3.03756,1.20609)">
            <path id="b" d="M203.57,0.17C203.45,0.29 203.33,0.46 203.33,0.62C203.33,0.91 203.67,1.31 204.3,1.95C206.93,4.48 208.25,7.57 208.24,11.3C208.23,15.43 206.84,18.75 204.14,21.31C203.57,21.82 203.34,22.22 203.34,22.56C203.34,22.73 203.46,22.9 203.57,23.07C203.68,23.19 203.91,23.3 204.08,23.3C204.7,23.3 205.58,22.57 206.72,21.13C208.94,18.41 209.94,15.4 210,11.31C210.05,7.21 208.77,4.43 206.25,1.56C205.35,0.53 204.59,0 204.08,0C203.91,0 203.73,0.06 203.57,0.17Z" style="fill:white;fill-rule:nonzero;"/>
            <path id="b1" serif:id="b" d="M203.57,0.17C203.45,0.29 203.33,0.46 203.33,0.62C203.33,0.91 203.67,1.31 204.3,1.95C206.93,4.48 208.25,7.57 208.24,11.3C208.23,15.43 206.84,18.75 204.14,21.31C203.57,21.82 203.34,22.22 203.34,22.56C203.34,22.73 203.46,22.9 203.57,23.07C203.68,23.19 203.91,23.3 204.08,23.3C204.7,23.3 205.58,22.57 206.72,21.13C208.94,18.41 209.94,15.4 210,11.31C210.05,7.21 208.77,4.43 206.25,1.56C205.35,0.53 204.59,0 204.08,0C203.91,0 203.73,0.06 203.57,0.17Z" style="fill-opacity:0;fill-rule:nonzero;stroke:black;stroke-opacity:0;stroke-width:1px;"/>
            <path id="e" d="M195.66,12.04C194.67,11.79 198.72,7.01 191.53,1.29C191.53,1.29 192.47,4.29 187.72,10.98C182.96,17.66 189.83,21.64 189.83,21.64C189.83,21.64 186.61,19.92 190.36,13.8C191.03,12.69 191.91,11.69 193,9.42C193,9.42 193.96,10.79 193.46,13.74C192.71,18.21 196.73,16.93 196.79,16.99C198.2,18.64 195.63,21.55 195.47,21.64C195.31,21.73 202.81,17.14 197.48,10.22C197.12,10.58 196.65,12.3 195.66,12.04Z" style="fill:white;fill-rule:nonzero;"/>
            <path id="e1" serif:id="e" d="M195.66,12.04C194.67,11.79 198.72,7.01 191.53,1.29C191.53,1.29 192.47,4.29 187.72,10.98C182.96,17.66 189.83,21.64 189.83,21.64C189.83,21.64 186.61,19.92 190.36,13.8C191.03,12.69 191.91,11.69 193,9.42C193,9.42 193.96,10.79 193.46,13.74C192.71,18.21 196.73,16.93 196.79,16.99C198.2,18.64 195.63,21.55 195.47,21.64C195.31,21.73 202.81,17.14 197.48,10.22C197.12,10.58 196.65,12.3 195.66,12.04Z" style="fill-opacity:0;fill-rule:nonzero;stroke:black;stroke-opacity:0;stroke-width:1px;"/>
            <path id="f" d="M181.88,0.18C182,0.29 182.11,0.46 182.11,0.63C182.11,0.92 181.77,1.31 181.14,1.95C178.52,4.48 177.2,7.57 177.21,11.31C177.22,15.43 178.61,18.75 181.31,21.32C181.87,21.82 182.11,22.22 182.11,22.56C182.11,22.73 181.99,22.91 181.88,23.07C181.77,23.19 181.54,23.31 181.37,23.31C180.74,23.31 179.87,22.57 178.73,21.13C176.51,18.41 175.51,15.41 175.45,11.31C175.4,7.21 176.68,4.43 179.2,1.56C180.1,0.54 180.86,-0 181.37,-0C181.54,-0 181.71,0.06 181.88,0.18Z" style="fill:white;fill-rule:nonzero;"/>
            <path id="f1" serif:id="f" d="M181.88,0.18C182,0.29 182.11,0.46 182.11,0.63C182.11,0.92 181.77,1.31 181.14,1.95C178.52,4.48 177.2,7.57 177.21,11.31C177.22,15.43 178.61,18.75 181.31,21.32C181.87,21.82 182.11,22.22 182.11,22.56C182.11,22.73 181.99,22.91 181.88,23.07C181.77,23.19 181.54,23.31 181.37,23.31C180.74,23.31 179.87,22.57 178.73,21.13C176.51,18.41 175.51,15.41 175.45,11.31C175.4,7.21 176.68,4.43 179.2,1.56C180.1,0.54 180.86,-0 181.37,-0C181.54,-0 181.71,0.06 181.88,0.18Z" style="fill-opacity:0;fill-rule:nonzero;stroke:black;stroke-opacity:0;stroke-width:1px;"/>
        </g>
    </g>
</svg>
