<?xml version="1.0" encoding="UTF-8" standalone="no"?>
<!DOCTYPE svg PUBLIC "-//W3C//DTD SVG 1.1//EN" "http://www.w3.org/Graphics/SVG/1.1/DTD/svg11.dtd">
<svg width="100%" height="100%" viewBox="0 0 64 64" version="1.1" xmlns="http://www.w3.org/2000/svg" xmlns:xlink="http://www.w3.org/1999/xlink" xml:space="preserve" xmlns:serif="http://www.serif.com/" style="fill-rule:evenodd;clip-rule:evenodd;stroke-linejoin:round;stroke-miterlimit:2;">
    <g transform="matrix(1,0,0,1,-52,-22)">
        <g id="ps-logo" transform="matrix(1,0,0,1,0,-32)">
            <path d="M116,54L52,54L52,118L116,118L116,54ZM101.304,112.031C99.14,112.031 97.308,111.647 95.805,110.878C94.303,110.108 93.011,109.099 91.93,107.849L95.138,104.748C96.004,105.758 96.971,106.527 98.041,107.056C99.11,107.585 100.294,107.849 101.592,107.849C103.058,107.849 104.164,107.53 104.909,106.894C105.654,106.257 106.027,105.397 106.027,104.316C106.027,103.474 105.787,102.789 105.306,102.261C104.825,101.732 103.924,101.347 102.602,101.107L100.222,100.746C95.199,99.953 92.687,97.513 92.687,93.427C92.687,92.297 92.897,91.276 93.318,90.363C93.738,89.449 94.345,88.668 95.138,88.019C95.932,87.37 96.887,86.871 98.005,86.523C99.122,86.174 100.39,86 101.809,86C103.707,86 105.366,86.312 106.784,86.937C108.202,87.562 109.416,88.488 110.426,89.714L107.181,92.778C106.556,92.009 105.799,91.384 104.909,90.903C104.02,90.423 102.902,90.182 101.556,90.182C100.186,90.182 99.159,90.441 98.473,90.957C97.788,91.474 97.446,92.201 97.446,93.139C97.446,94.1 97.722,94.809 98.275,95.266C98.828,95.723 99.717,96.059 100.943,96.276L103.287,96.708C105.835,97.165 107.715,97.976 108.929,99.142C110.143,100.308 110.75,101.936 110.75,104.027C110.75,105.229 110.54,106.317 110.119,107.29C109.698,108.264 109.085,109.105 108.28,109.814C107.475,110.523 106.49,111.07 105.324,111.454C104.158,111.839 102.818,112.031 101.304,112.031ZM70.621,111.599L70.621,86.433L81.943,86.433C83.096,86.433 84.136,86.619 85.061,86.991C85.987,87.364 86.774,87.893 87.423,88.578C88.072,89.263 88.565,90.086 88.901,91.048C89.238,92.009 89.406,93.067 89.406,94.22C89.406,95.398 89.238,96.462 88.901,97.411C88.565,98.361 88.072,99.178 87.423,99.863C86.774,100.548 85.987,101.077 85.061,101.449C84.136,101.822 83.096,102.008 81.943,102.008L75.381,102.008L75.381,111.599L70.621,111.599ZM75.381,97.898L81.51,97.898C82.423,97.898 83.144,97.652 83.673,97.159C84.202,96.666 84.466,95.963 84.466,95.05L84.466,93.391C84.466,92.478 84.202,91.781 83.673,91.3C83.144,90.819 82.423,90.579 81.51,90.579L75.381,90.579L75.381,97.898Z" style="fill:rgb(244,244,244);"/>
        </g>
    </g>
</svg>
